<?xml version="1.0" standalone="no"?>
<!DOCTYPE svg PUBLIC "-//W3C//DTD SVG 20010904//EN"
 "http://www.w3.org/TR/2001/REC-SVG-20010904/DTD/svg10.dtd">
<svg version="1.0" xmlns="http://www.w3.org/2000/svg"
 width="500.000000pt" height="500.000000pt" viewBox="0 0 500.000000 500.000000"
 preserveAspectRatio="xMidYMid meet">

<g transform="translate(0.000000,500.000000) scale(0.100000,-0.100000)"
fill="#000000" stroke="none">
<path d="M0 2500 l0 -2500 2500 0 2500 0 0 2500 0 2500 -2500 0 -2500 0 0
-2500z m2647 1290 c45 -27 56 -54 50 -115 l-5 -53 51 -44 c45 -38 56 -44 80
-37 33 9 82 -4 108 -27 11 -10 24 -34 29 -55 20 -74 -34 -145 -110 -143 -74 2
-118 58 -107 137 6 40 3 45 -40 89 -44 45 -47 47 -93 41 -61 -7 -106 16 -127
64 -19 47 -10 93 25 125 46 43 89 49 139 18z m-237 -285 c21 -21 25 -35 25
-85 0 -57 3 -62 44 -104 43 -44 44 -44 97 -39 51 5 55 4 89 -30 30 -30 35 -42
35 -82 0 -40 -5 -52 -35 -82 -34 -34 -38 -35 -89 -30 -53 5 -54 5 -97 -39 -42
-42 -44 -47 -44 -105 0 -56 -3 -63 -33 -90 -69 -62 -177 -24 -189 67 -11 82
61 148 139 127 36 -10 38 -9 86 41 46 48 48 53 39 83 -6 20 -6 41 1 60 9 26 6
32 -40 79 -49 50 -51 51 -88 42 -77 -20 -148 44 -137 124 13 98 126 134 197
63z m-292 -239 c34 -18 56 -57 56 -101 0 -75 -55 -121 -134 -112 -46 6 -48 4
-91 -41 -44 -46 -45 -48 -44 -114 1 -66 2 -69 44 -112 43 -44 44 -44 96 -39
44 5 59 2 83 -16 84 -60 49 -195 -55 -207 -77 -10 -145 67 -124 140 8 32 6 37
-41 82 -47 47 -51 49 -99 46 -58 -4 -90 12 -115 60 -44 86 48 193 137 159 24
-9 31 -4 78 43 48 49 51 54 41 81 -23 61 38 145 106 145 19 0 47 -6 62 -14z
m1085 -27 c27 -29 29 -37 24 -84 -5 -52 -5 -52 46 -103 40 -39 56 -49 67 -42
37 24 116 -5 141 -51 14 -27 14 -91 -1 -118 -27 -52 -114 -71 -166 -37 -38 26
-59 81 -45 125 10 34 9 37 -35 82 l-45 45 -70 -1 c-69 -1 -70 -2 -118 -49 -44
-44 -48 -51 -39 -72 8 -17 8 -35 -1 -63 -16 -54 -52 -81 -108 -81 -38 0 -50 5
-79 34 -27 27 -34 42 -34 73 0 81 71 138 142 114 31 -11 34 -9 84 40 43 42 51
56 43 70 -13 26 -11 66 6 99 35 69 135 79 188 19z m-536 -524 c33 -33 35 -38
31 -90 -3 -53 -2 -55 46 -104 42 -43 52 -48 69 -39 11 5 37 7 60 4 38 -6 43
-4 88 40 46 45 48 50 42 89 -10 78 38 135 115 135 37 0 50 -6 78 -34 28 -28
34 -41 34 -78 0 -24 -7 -54 -16 -66 -30 -43 -107 -66 -144 -42 -11 7 -27 -3
-67 -42 -48 -47 -50 -52 -41 -80 16 -45 -5 -104 -45 -128 -52 -32 -103 -26
-144 15 -34 34 -35 38 -31 90 5 54 4 54 -46 104 -39 38 -55 48 -66 41 -24 -15
-62 -11 -97 10 -40 24 -56 53 -56 101 0 65 46 108 117 109 30 0 45 -7 73 -35z
m-292 -241 c51 -24 80 -98 56 -143 -8 -14 0 -28 42 -69 48 -48 55 -51 83 -43
26 7 97 -6 108 -21 26 -34 36 -58 36 -86 0 -41 -23 -88 -51 -102 -31 -17 -96
-14 -125 5 -37 24 -59 81 -46 121 9 30 7 35 -40 81 -48 47 -50 48 -102 45 -47
-3 -58 0 -86 25 -60 54 -48 158 23 188 42 19 62 18 102 -1z m-879 -707 c29
-34 31 -66 4 -100 l-21 -26 21 -11 c31 -17 43 -56 29 -97 -16 -49 -55 -63
-179 -63 l-100 0 0 166 0 166 111 -4 c107 -3 112 -4 135 -31z m192 -32 l39
-66 39 65 c38 64 40 66 82 66 l42 0 -23 -37 c-13 -21 -43 -67 -66 -102 -37
-58 -41 -70 -41 -128 l0 -63 -35 0 -35 0 0 64 c0 62 -3 69 -60 160 -33 53 -60
98 -60 101 0 3 18 5 39 5 38 0 41 -3 79 -65z m500 33 c-3 -32 -5 -33 -50 -36
l-48 -3 0 -130 0 -129 -40 0 -40 0 0 130 0 130 -50 0 -50 0 0 35 0 35 141 0
140 0 -3 -32z m302 2 l0 -29 -87 -3 -88 -3 -3 -32 -3 -33 80 0 81 0 0 -35 0
-35 -80 0 -80 0 0 -30 0 -30 90 0 90 0 0 -35 0 -35 -125 0 -125 0 0 165 0 165
125 0 125 0 0 -30z m140 -100 l0 -129 83 -3 82 -3 3 -32 3 -33 -120 0 -121 0
0 165 0 165 35 0 35 0 0 -130z m290 0 l0 -130 85 0 85 0 0 -35 0 -35 -120 0
-120 0 0 165 0 165 35 0 35 0 0 -130z m300 -35 l0 -165 -40 0 -40 0 0 165 0
165 40 0 40 0 0 -165z m221 68 l74 -96 3 96 3 97 34 0 35 0 0 -165 0 -165 -30
0 c-25 0 -39 13 -107 103 l-78 102 -3 -102 -3 -103 -34 0 -35 0 0 165 0 165
34 0 c30 0 40 -8 107 -97z m309 30 l1 -68 63 68 c58 63 65 67 105 67 l43 0
-61 -69 c-34 -38 -61 -72 -61 -75 0 -4 26 -42 58 -84 82 -108 80 -102 29 -102
-43 0 -45 1 -93 69 -46 65 -50 69 -66 54 -13 -12 -18 -31 -18 -70 l0 -53 -40
0 -40 0 0 165 0 165 40 0 40 0 0 -67z m-2156 -467 c12 -18 14 -17 35 17 12 21
27 35 32 31 12 -7 12 -124 -1 -124 -5 0 -10 21 -10 48 l-1 47 -21 -29 -22 -29
-23 29 -23 29 0 -47 c0 -27 -4 -48 -10 -48 -11 0 -14 113 -3 124 7 7 17 -4 47
-48z m279 -18 c14 -32 22 -58 18 -58 -5 0 -11 7 -15 15 -8 22 -72 20 -85 -2
-5 -10 -12 -15 -15 -12 -3 3 8 34 25 69 17 35 33 59 38 54 5 -5 20 -35 34 -66z
m147 35 l0 -37 40 39 c41 40 57 39 19 -2 l-22 -22 27 -36 c15 -19 22 -35 17
-35 -6 0 -20 13 -32 30 -17 23 -26 27 -36 19 -7 -6 -13 -20 -13 -30 0 -11 -4
-19 -10 -19 -6 0 -10 28 -10 65 0 37 4 65 10 65 6 0 10 -17 10 -37z m280 27
c0 -5 -16 -10 -35 -10 -28 0 -35 -4 -35 -20 0 -16 7 -20 38 -22 l37 -1 -37 -4
c-32 -4 -38 -8 -38 -28 0 -21 5 -24 43 -28 40 -3 40 -4 -10 -5 l-53 -2 0 65 0
65 45 0 c25 0 45 -4 45 -10z m347 -12 c44 -41 15 -108 -46 -108 -55 0 -81 70
-41 110 26 26 58 25 87 -2z m182 -29 l41 -52 0 52 c0 32 4 50 10 46 12 -8 13
-125 1 -125 -5 0 -26 23 -47 51 l-39 50 -6 -53 -6 -53 -1 68 c-1 37 0 67 2 67
2 0 23 -23 45 -51z m191 -14 l0 -54 38 -4 c34 -3 33 -4 -10 -5 l-48 -2 0 66
c0 41 4 63 10 59 6 -3 10 -30 10 -60z m190 -6 c0 -33 -4 -59 -10 -59 -6 0 -10
29 -10 66 0 41 4 63 10 59 6 -3 10 -33 10 -66z m165 19 l40 -52 6 54 6 55 1
-67 c1 -38 -1 -68 -5 -68 -5 0 -24 22 -43 47 l-35 47 -3 -47 c-5 -71 -22 -56
-22 18 0 36 4 65 8 65 4 0 26 -23 47 -52z m260 42 c4 -6 -10 -10 -34 -10 -34
0 -41 -3 -41 -20 0 -16 7 -20 38 -22 l37 -1 -37 -4 c-32 -4 -38 -8 -38 -28 0
-21 5 -24 43 -28 40 -3 40 -4 -10 -5 l-53 -2 0 58 c0 32 3 62 7 65 10 11 81 8
88 -3z"/>
<path d="M1330 1704 l0 -35 53 3 c48 3 52 5 55 29 3 29 -15 39 -75 39 -31 0
-33 -2 -33 -36z"/>
<path d="M1330 1570 c0 -40 0 -40 39 -40 56 0 91 15 91 40 0 25 -35 40 -91 40
-39 0 -39 0 -39 -40z"/>
<path d="M1820 1271 c-14 -27 -9 -34 18 -29 19 3 19 5 8 27 l-13 24 -13 -22z"/>
<path d="M2566 1284 c-21 -54 13 -97 60 -75 27 12 33 58 12 79 -17 17 -65 15
-72 -4z"/>
</g>
</svg>
